<?xml version="1.0" standalone="no"?><!DOCTYPE svg PUBLIC "-//W3C//DTD SVG 1.1//EN" "http://www.w3.org/Graphics/SVG/1.1/DTD/svg11.dtd"><svg t="1649664700707" class="icon" viewBox="0 0 1024 1024" version="1.1" xmlns="http://www.w3.org/2000/svg" p-id="19109" xmlns:xlink="http://www.w3.org/1999/xlink" width="128" height="128"><defs><style type="text/css">@font-face { font-family: feedback-iconfont; src: url("//at.alicdn.com/t/font_1031158_u69w8yhxdu.woff2?t=1630033759944") format("woff2"), url("//at.alicdn.com/t/font_1031158_u69w8yhxdu.woff?t=1630033759944") format("woff"), url("//at.alicdn.com/t/font_1031158_u69w8yhxdu.ttf?t=1630033759944") format("truetype"); }
</style></defs><path d="M341.333333 0v128h341.333334V0h85.333333v128h256v896H0V128h256V0h85.333333z m597.333334 512H85.333333v426.666667h853.333334V512zM256 213.333333H85.333333v213.333334h853.333334V213.333333h-170.666667v128h-85.333333V213.333333H341.333333v128H256V213.333333z" p-id="19110" fill="#666666"></path><path d="M213.333333 768h85.333334v85.333333H213.333333zM213.333333 597.333333h85.333334v85.333334H213.333333zM384 768h85.333333v85.333333H384zM384 597.333333h85.333333v85.333334H384zM554.666667 768h85.333333v85.333333h-85.333333zM554.666667 597.333333h85.333333v85.333334h-85.333333zM725.333333 768h85.333334v85.333333h-85.333334zM725.333333 597.333333h85.333334v85.333334h-85.333334z" p-id="19111" fill="#666666"></path></svg>