<?xml version="1.0" standalone="no"?><!DOCTYPE svg PUBLIC "-//W3C//DTD SVG 1.1//EN" "http://www.w3.org/Graphics/SVG/1.1/DTD/svg11.dtd"><svg t="1649664662214" class="icon" viewBox="0 0 1024 1024" version="1.1" xmlns="http://www.w3.org/2000/svg" p-id="18180" xmlns:xlink="http://www.w3.org/1999/xlink" width="128" height="128"><defs><style type="text/css">@font-face { font-family: feedback-iconfont; src: url("//at.alicdn.com/t/font_1031158_u69w8yhxdu.woff2?t=1630033759944") format("woff2"), url("//at.alicdn.com/t/font_1031158_u69w8yhxdu.woff?t=1630033759944") format("woff"), url("//at.alicdn.com/t/font_1031158_u69w8yhxdu.ttf?t=1630033759944") format("truetype"); }
</style></defs><path d="M539.133709 853.045895l226.034527 136.326737c40.259368 24.279579 90.058105-11.749053 79.333052-57.586527l-59.79621-257.050947a53.274947 53.274947 0 0 1 17.003789-52.224l199.626106-172.840421c35.597474-30.827789 16.626526-89.222737-30.234948-93.29179l-263.168-22.554947a53.113263 53.113263 0 0 1-44.43621-32.229053l-102.723369-242.391579c-18.378105-43.277474-79.683368-43.277474-97.953684 0l-102.723368 242.391579a53.113263 53.113263 0 0 1-44.436211 32.229053l-263.410526 22.447158c-46.888421 4.069053-65.832421 62.464-30.234948 93.264842l199.626106 172.840421c14.901895 12.934737 21.423158 33.037474 16.976842 52.224l-59.796211 257.077895c-10.698105 45.810526 39.100632 81.866105 79.36 57.559579l226.034527-136.192a53.409684 53.409684 0 0 1 54.918736 0z" p-id="18181" fill="#666666"></path></svg>