<?xml version="1.0" standalone="no"?><!DOCTYPE svg PUBLIC "-//W3C//DTD SVG 1.1//EN" "http://www.w3.org/Graphics/SVG/1.1/DTD/svg11.dtd"><svg t="1649664372868" class="icon" viewBox="0 0 1024 1024" version="1.1" xmlns="http://www.w3.org/2000/svg" p-id="10875" xmlns:xlink="http://www.w3.org/1999/xlink" width="128" height="128"><defs><style type="text/css">@font-face { font-family: feedback-iconfont; src: url("//at.alicdn.com/t/font_1031158_u69w8yhxdu.woff2?t=1630033759944") format("woff2"), url("//at.alicdn.com/t/font_1031158_u69w8yhxdu.woff?t=1630033759944") format("woff"), url("//at.alicdn.com/t/font_1031158_u69w8yhxdu.ttf?t=1630033759944") format("truetype"); }
</style></defs><path d="M968.192 153.6c32.6656 0 52.992 18.2784 55.552 49.4592L1024 209.92v614.4c0 33.024-18.1248 53.4528-48.9472 56.064l-6.8096 0.256H55.7568c-32.6144 0-52.9408-18.2784-55.5008-49.4592L0 824.32v-614.4c0-33.024 18.1248-53.4528 48.9472-56.064L55.808 153.6h912.4864z m-5.0176 61.44H60.8256V819.2h902.3488V215.04z" p-id="10876" fill="#666666"></path><path d="M268.6976 409.6h-30.976l-5.12 4.7616-4.5056 64.9728-58.7264-15.7696-6.2464 3.3792-9.2672 28.8256 2.7648 6.2464 56.0128 24.7808-35.84 57.4976 1.4336 6.9632 25.8048 17.7664 6.8608-1.024 42.3424-52.1216 42.2912 52.1728 6.912 1.024 25.8048-17.8176 1.4336-6.9632-35.84-57.5488 55.9616-24.7296 2.816-6.2464-9.3184-28.8256-6.1952-3.3792-58.8288 15.8208-4.4544-65.024zM508.928 409.6h-31.0272l-5.12 4.7616-4.5056 64.9728-58.7264-15.7696-6.1952 3.3792-9.3184 28.8256 2.816 6.2464 55.9616 24.7296-35.84 57.5488 1.4336 6.9632 25.8048 17.7664 6.8608-1.024 42.3424-52.1216 42.3424 52.1728 6.8608 1.024 25.8048-17.8176 1.4336-6.9632-35.7888-57.4976 55.9104-24.7808 2.816-6.2464-9.3184-28.8256-6.144-3.3792-58.8288 15.7696-4.4544-64.9728zM749.1072 409.6h-30.976l-5.12 4.7616-4.5056 64.9728-58.7776-15.7696-6.144 3.3792-9.3184 28.8256 2.7648 6.2464 56.0128 24.7808-35.84 57.4976 1.4336 6.9632 25.7536 17.7664 6.912-1.024 42.2912-52.0704 42.3424 52.1216 6.912 1.024 25.8048-17.8176 1.4336-6.9632-35.9424-57.4976 56.064-24.7808 2.7648-6.2464-9.2672-28.8256-6.1952-3.3792-58.8288 15.8208-4.4544-65.024z" p-id="10877" fill="#666666"></path></svg>