<?xml version="1.0" standalone="no"?><!DOCTYPE svg PUBLIC "-//W3C//DTD SVG 1.1//EN" "http://www.w3.org/Graphics/SVG/1.1/DTD/svg11.dtd"><svg t="1649664621157" class="icon" viewBox="0 0 1024 1024" version="1.1" xmlns="http://www.w3.org/2000/svg" p-id="17246" xmlns:xlink="http://www.w3.org/1999/xlink" width="128" height="128"><defs><style type="text/css">@font-face { font-family: feedback-iconfont; src: url("//at.alicdn.com/t/font_1031158_u69w8yhxdu.woff2?t=1630033759944") format("woff2"), url("//at.alicdn.com/t/font_1031158_u69w8yhxdu.woff?t=1630033759944") format("woff"), url("//at.alicdn.com/t/font_1031158_u69w8yhxdu.ttf?t=1630033759944") format("truetype"); }
</style></defs><path d="M128 448V192h768v256h-128l64 64h128V128H64v384h512V448H128z m0 448v-256h448V576H64v384h512v-64H128z m530.24-448c5.184 0 9.408 1.792 12.864 5.44l292.608 292.608c5.76 4.864 7.36 12.992 4.032 19.712-3.264 7.616-8.832 11.392-16.896 11.392H841.6l57.472 136a18.56 18.56 0 0 1-9.728 24l-50.624 21.44a18.56 18.56 0 0 1-24-9.728l-54.592-129.152-89.088 89.28a17.728 17.728 0 0 1-19.712 3.968A17.152 17.152 0 0 1 640 896V466.368c0-8 3.776-13.632 11.392-16.896A17.6 17.6 0 0 1 658.24 448z" p-id="17247" fill="#666666"></path></svg>