<?xml version="1.0" standalone="no"?><!DOCTYPE svg PUBLIC "-//W3C//DTD SVG 1.1//EN" "http://www.w3.org/Graphics/SVG/1.1/DTD/svg11.dtd"><svg t="1649664819494" class="icon" viewBox="0 0 1024 1024" version="1.1" xmlns="http://www.w3.org/2000/svg" p-id="20624" xmlns:xlink="http://www.w3.org/1999/xlink" width="128" height="128"><defs><style type="text/css">@font-face { font-family: feedback-iconfont; src: url("//at.alicdn.com/t/font_1031158_u69w8yhxdu.woff2?t=1630033759944") format("woff2"), url("//at.alicdn.com/t/font_1031158_u69w8yhxdu.woff?t=1630033759944") format("woff"), url("//at.alicdn.com/t/font_1031158_u69w8yhxdu.ttf?t=1630033759944") format("truetype"); }
</style></defs><path d="M510.656 958.078c-247.085 0-447.296-200.295-447.296-447.339 0-247.085 200.211-447.297 447.296-447.297 247.044 0 447.34 200.212 447.34 447.297 0 247.044-200.296 447.339-447.34 447.339z m0-826.66c-209.132 0-379.32 170.19-379.32 379.321 0 209.173 170.189 380.188 379.32 380.188 209.174 0 379.363-171.015 379.363-380.188 0-209.133-170.188-379.32-379.363-379.32z m125.258 561.278L494.18 550.963c-0.496-0.496-0.992-0.91-1.404-1.404l-3.139-3.14c-9.705-9.703-10.778-24.2-4.213-35.515V247.382c0-15.61 11.936-28.247 26.637-28.247 14.704 0 26.639 12.637 26.639 28.247v264.472l139.05 139.09c11.52 11.523 11.52 30.231 0 41.752-11.565 11.565-30.232 11.565-41.836 0z" p-id="20625" fill="#666666"></path></svg>